<svg height="40" width="40" xmlns="http://www.w3.org/2000/svg"><path d="M20 2c9.925 0 18 8.075 18 18s-8.074 18-18 18S2 29.925 2 20 10.075 2 20 2m0-2C8.954 0 0 8.954 0 20c0 11.047 8.954 20 20 20 11.044 0 20-8.953 20-20C40 8.954 31.045 0 20 0z" fill="#959595"/><path clip-rule="evenodd" d="M12.537 10.641h14.926a2.584 2.584 0 012.576 2.577v14.925a2.584 2.584 0 01-2.576 2.577H12.537a2.584 2.584 0 01-2.577-2.577V13.218a2.584 2.584 0 012.577-2.577zm12.051 2.231a.906.906 0 00-.904.904v2.164c0 .497.406.903.904.903h2.27a.905.905 0 00.902-.903v-2.164a.906.906 0 00-.902-.904h-2.27zm3.182 6.26h-1.768c.168.546.258 1.124.258 1.724 0 3.34-2.795 6.047-6.24 6.047-3.447 0-6.243-2.707-6.243-6.047 0-.6.091-1.178.258-1.724h-1.844v8.482a.8.8 0 00.798.799h13.983a.8.8 0 00.797-.799v-8.482h.001zm-7.75-2.402c-2.229 0-4.034 1.749-4.034 3.907 0 2.159 1.805 3.909 4.034 3.909 2.226 0 4.031-1.75 4.031-3.909 0-2.158-1.805-3.907-4.031-3.907z" fill="#959595" fill-rule="evenodd"/></svg>