<svg xmlns="http://www.w3.org/2000/svg" viewBox="0 0 751 751"><path d="M375.5 5C170.88 5 5 170.88 5 375.5S170.88 746 375.5 746 746 580.12 746 375.5 580.12 5 375.5 5zM566 216.78l-70 330.39c-5.29 23.32-19.07 29.13-38.66 18.14l-106.79-78.66-51.5 49.54c-5.7 5.7-10.47 10.47-21.46 10.47l7.67-108.72 197.85-178.77c8.6-7.67-1.87-11.92-13.37-4.25l-244.59 154L119.86 376c-22.9-7.15-23.32-22.91 4.77-33.89l411.85-158.67c19.07-7.18 35.75 4.22 29.52 33.34z" fill="#fff" stroke="#000" stroke-miterlimit="10" stroke-width="10"/></svg>