<svg xmlns="http://www.w3.org/2000/svg" viewBox="0 0 751 751"><defs><style>.a{fill:#fff;stroke:#000;stroke-miterlimit:10;stroke-width:10px;}</style></defs><title>telegram</title><path class="a" d="M960.5,169C755.88,169,590,334.88,590,539.5S755.88,910,960.5,910,1331,744.12,1331,539.5,1165.12,169,960.5,169ZM1151,380.78l-70,330.39c-5.29,23.32-19.07,29.13-38.66,18.14L935.55,650.65l-51.5,49.54c-5.7,5.7-10.47,10.47-21.46,10.47l7.67-108.72,197.85-178.77c8.6-7.67-1.87-11.92-13.37-4.25l-244.59,154L704.86,540c-22.9-7.15-23.32-22.91,4.77-33.89l411.85-158.67C1140.55,340.26,1157.23,351.66,1151,380.78Z" transform="translate(-585 -164)"/></svg>